<?xml version="1.0" encoding="UTF-8"?>
<svg width="51px" height="53px" viewBox="0 0 51 53" version="1.1" xmlns="http://www.w3.org/2000/svg" xmlns:xlink="http://www.w3.org/1999/xlink">
    <!-- Generator: Sketch 43 (38999) - http://www.bohemiancoding.com/sketch -->
    <title>AddColorIcon</title>
    <desc>Created with Sketch.</desc>
    <defs></defs>
    <g id="Page-1" stroke="none" stroke-width="1" fill="none" fill-rule="evenodd" opacity="0.5">
        <g id="1.-Home-Page" transform="translate(-687.000000, -902.000000)" fill-rule="nonzero" fill="#000000">
            <g id="AddColor" transform="translate(668.000000, 902.000000)">
                <g id="AddColorIcon" transform="translate(17.000000, 0.000000)">
                    <path d="M21.2513889,50.1875 C20.2670635,50.1875 19.2849206,49.8121032 18.534127,49.0634921 L3.65357143,34.1829365 C2.67797619,33.2095238 2.16071429,31.9632937 2.16071429,30.5839286 C2.16071429,29.2242063 2.69107143,27.9452381 3.65357143,26.9827381 L22.6089286,8.02738095 L17.3621032,2.73035714 C17.0718254,2.43571429 16.6811508,2.27420635 16.2686508,2.27202381 L16.2642857,2.27202381 C15.8517857,2.27202381 15.4632937,2.43353175 15.1708333,2.72599206 L7.5406746,10.3561508 L5.99761905,8.81309524 L13.6277778,1.18293651 C14.3327381,0.47797619 15.2690476,0.0916666667 16.2642857,0.0916666667 L16.2730159,0.0916666667 C17.272619,0.0938492063 18.2111111,0.486706349 18.9138889,1.19603175 L48.4196429,30.9855159 L47.6295635,32.8450397 L40.2831349,32.7511905 L23.9664683,49.0634921 C23.2178571,49.8121032 22.2357143,50.1875 21.2513889,50.1875 Z M24.143254,9.57916667 L5.19662698,28.5257937 C4.64007937,29.0823413 4.34325397,29.7938492 4.34325397,30.581746 C4.34325397,31.3936508 4.62261905,32.065873 5.19662698,32.6376984 L20.0771825,47.518254 C20.7253968,48.1664683 21.7751984,48.1664683 22.4234127,47.518254 L39.0630952,30.8763889 L39.8488095,30.5577381 L44.9886905,30.6232143 L24.143254,9.57916667 Z" id="Shape"></path>
                    <path d="M46.9246032,52.3809524 C43.914881,52.3809524 41.468254,49.8011905 41.468254,46.6321429 C41.468254,44.4736111 42.6861111,42.6904762 43.8625,40.9706349 C44.7617063,39.6545635 45.6107143,38.414881 45.8529762,37.1184524 L47.9962302,37.1162698 C48.2406746,38.4170635 49.0918651,39.6632937 49.9910714,40.9815476 C51.1652778,42.7035714 52.3809524,44.4845238 52.3809524,46.6321429 C52.3809524,49.8011905 49.9343254,52.3809524 46.9246032,52.3809524 Z M46.9246032,40.2503968 C46.5382937,40.922619 46.0974206,41.5686508 45.6652778,42.2037698 C44.6285714,43.7162698 43.6507937,45.1480159 43.6507937,46.6321429 C43.6507937,48.5964286 45.1196429,50.1984127 46.9246032,50.1984127 C48.7295635,50.1984127 50.1984127,48.5986111 50.1984127,46.6321429 C50.1984127,45.156746 49.2228175,43.7271825 48.1882937,42.2125 C47.7539683,41.5751984 47.3109127,40.9269841 46.9246032,40.2503968 Z" id="Shape"></path>
                </g>
            </g>
        </g>
    </g>
</svg>