<?xml version="1.0" encoding="UTF-8"?>
<svg width="60px" height="51px" viewBox="0 0 60 51" version="1.1" xmlns="http://www.w3.org/2000/svg" xmlns:xlink="http://www.w3.org/1999/xlink">
    <!-- Generator: Sketch 43 (38999) - http://www.bohemiancoding.com/sketch -->
    <title>AddToCartIcon</title>
    <desc>Created with Sketch.</desc>
    <defs></defs>
    <g id="Page-1" stroke="none" stroke-width="1" fill="none" fill-rule="evenodd" opacity="0.5">
        <g id="1.-Home-Page" transform="translate(-1129.000000, -903.000000)" fill-rule="nonzero" fill="#1C2333">
            <g id="AddToCart" transform="translate(1103.000000, 903.000000)">
                <g id="AddToCartIcon" transform="translate(26.000000, 0.000000)">
                    <polygon id="Shape" points="50.4648526 0 50.4648526 8.21995465 42.244898 8.21995465 42.244898 9.53514739 50.4648526 9.53514739 50.4648526 17.755102 51.7800454 17.755102 51.7800454 9.53514739 60 9.53514739 60 8.21995465 51.7800454 8.21995465 51.7800454 0"></polygon>
                    <path d="M1.02899996,9.18370712 C0.460683281,9.18370712 0,9.64969588 0,10.2245227 C0,10.7993496 0.460683281,11.2653384 1.02899996,11.2653384 L6.36693709,11.2653384 L11.7852398,37.1881471 C11.7299825,37.7811518 12.2743749,38.3564626 12.8624998,38.3265391 L38.5874983,38.3265391 C39.131119,38.3343453 39.6311615,37.8356905 39.6311615,37.2857235 C39.6311615,36.7358086 39.131119,36.2371538 38.5874983,36.2449079 L13.6985623,36.2449079 L12.8303436,32.0816455 L40.6454982,32.0816455 C41.1062329,32.0764414 41.5415514,31.7232406 41.6423419,31.2685083 L45.2438418,15.6562844 C45.3776632,15.0522367 44.8589958,14.3922139 44.2469981,14.3877904 L9.13237499,14.3877904 L8.21594763,9.99684432 C8.11397373,9.53681423 7.6690856,9.17968437 7.20299956,9.18370712 L1.02899996,9.18370712 Z M9.56651008,16.4694216 L42.9607481,16.4694216 L39.8254881,30.0000142 L12.39626,30.0000142 L9.56651008,16.4694216 Z M18.0074991,41.448986 C15.4623711,41.448986 13.3769998,43.5582509 13.3769998,46.1326563 C13.3769998,48.7070616 15.4623711,50.8163265 18.0074991,50.8163265 C20.5526791,50.8163265 22.6379989,48.7070616 22.6379989,46.1326563 C22.6379989,43.5583029 20.5526791,41.448986 18.0074991,41.448986 Z M33.4424985,41.448986 C30.89737,41.448986 28.8119987,43.5582509 28.8119987,46.1326563 C28.8119987,48.7070616 30.89737,50.8163265 33.4424985,50.8163265 C35.9876784,50.8163265 38.0729983,48.7070616 38.0729983,46.1326563 C38.0729983,43.5583029 35.9876784,41.448986 33.4424985,41.448986 Z M18.0074991,43.5306172 C19.440433,43.5306172 20.579999,44.6832685 20.579999,46.1326563 C20.579999,47.5820961 19.440433,48.7346953 18.0074991,48.7346953 C16.5746172,48.7346953 15.4349997,47.582044 15.4349997,46.1326563 C15.4349997,44.6833205 16.5746172,43.5306172 18.0074991,43.5306172 Z M33.4424985,43.5306172 C34.8754324,43.5306172 36.0149984,44.6832685 36.0149984,46.1326563 C36.0149984,47.5820961 34.8754324,48.7346953 33.4424985,48.7346953 C32.0096161,48.7346953 30.8699986,47.582044 30.8699986,46.1326563 C30.8699986,44.6833205 32.0096161,43.5306172 33.4424985,43.5306172 Z" id="Shape"></path>
                </g>
            </g>
        </g>
    </g>
</svg>