<?xml version="1.0" encoding="UTF-8"?>
<svg width="54px" height="46px" viewBox="0 0 54 46" version="1.1" xmlns="http://www.w3.org/2000/svg" xmlns:xlink="http://www.w3.org/1999/xlink">
    <!-- Generator: Sketch 43 (38999) - http://www.bohemiancoding.com/sketch -->
    <title>AddTextIcon</title>
    <desc>Created with Sketch.</desc>
    <defs></defs>
    <g id="Page-1" stroke="none" stroke-width="1" fill="none" fill-rule="evenodd" opacity="0.5">
        <g id="1.-Home-Page" transform="translate(-902.000000, -904.000000)" fill-rule="nonzero" fill="#000000">
            <g id="AddText" transform="translate(855.000000, 904.000000)">
                <g id="AddTextIcon" transform="translate(47.000000, 0.000000)">
                    <path d="M19.4023256,35.9935407 L10.3918605,35.9935407 C9.87195349,35.9935407 9.45,35.5241053 9.45,34.9456938 L9.45,24.8863636 C9.45,24.3079522 9.87195349,23.8385167 10.3918605,23.8385167 C10.9117674,23.8385167 11.3337209,24.3079522 11.3337209,24.8863636 L11.3337209,33.8978469 L19.4023256,33.8978469 C19.9222326,33.8978469 20.344186,34.3672823 20.344186,34.9456938 C20.344186,35.5241053 19.9228605,35.9935407 19.4023256,35.9935407 Z" id="Shape"></path>
                    <path d="M10.3924884,46.0179426 C9.8725814,46.0179426 9.45062791,45.5485072 9.45062791,44.9700957 L9.45062791,35.9935407 L1.38076744,35.9935407 C0.860860465,35.9935407 0.438906977,35.5241053 0.438906977,34.9456938 C0.438906977,34.3672823 0.860860465,33.8978469 1.38076744,33.8978469 L10.3924884,33.8978469 C10.9123953,33.8978469 11.3343488,34.3672823 11.3343488,34.9456938 L11.3343488,44.9700957 C11.3343488,45.5485072 10.9123953,46.0179426 10.3924884,46.0179426 Z" id="Shape"></path>
                    <path d="M52.6192326,24.5028517 L17.8011628,24.5028517 C17.2812558,24.5028517 16.8593023,24.0334163 16.8593023,23.4550048 C16.8593023,22.8765933 17.2812558,22.4071579 17.8011628,22.4071579 L52.6192326,22.4071579 C53.1391395,22.4071579 53.561093,22.8765933 53.561093,23.4550048 C53.561093,24.0334163 53.1391395,24.5028517 52.6192326,24.5028517 Z" id="Shape"></path>
                    <path d="M52.6192326,13.8497416 L10.0465116,13.8497416 C9.52660465,13.8497416 9.10465116,13.3803062 9.10465116,12.8018947 C9.10465116,12.2234833 9.52660465,11.7540478 10.0465116,11.7540478 L52.6192326,11.7540478 C53.1391395,11.7540478 53.561093,12.2234833 53.561093,12.8018947 C53.561093,13.3803062 53.1391395,13.8497416 52.6192326,13.8497416 Z" id="Shape"></path>
                    <path d="M52.6192326,2.18301435 L10.0465116,2.18301435 C9.52660465,2.18301435 9.10465116,1.71357895 9.10465116,1.13516746 C9.10465116,0.556755981 9.52660465,0.0873205742 10.0465116,0.0873205742 L52.6192326,0.0873205742 C53.1391395,0.0873205742 53.561093,0.556755981 53.561093,1.13516746 C53.561093,1.71357895 53.1391395,2.18301435 52.6192326,2.18301435 Z" id="Shape"></path>
                    <path d="M52.6192326,36.2038086 L26.8750465,36.2038086 C26.3551395,36.2038086 25.933186,35.7343732 25.933186,35.1559617 C25.933186,34.5775502 26.3551395,34.1081148 26.8750465,34.1081148 L52.6192326,34.1081148 C53.1391395,34.1081148 53.561093,34.5775502 53.561093,35.1559617 C53.561093,35.7343732 53.1391395,36.2038086 52.6192326,36.2038086 Z" id="Shape"></path>
                </g>
            </g>
        </g>
    </g>
</svg>