<?xml version="1.0" encoding="UTF-8"?>
<svg width="10px" height="10px" viewBox="0 0 10 10" version="1.1" xmlns="http://www.w3.org/2000/svg" xmlns:xlink="http://www.w3.org/1999/xlink">
    <!-- Generator: Sketch 43 (38999) - http://www.bohemiancoding.com/sketch -->
    <title>Cancel</title>
    <desc>Created with Sketch.</desc>
    <defs></defs>
    <g id="Page-1" stroke="none" stroke-width="1" fill="none" fill-rule="evenodd">
        <g id="4.-Cart" transform="translate(-1368.000000, -320.000000)" fill-rule="nonzero" fill="#000000">
            <path d="M1377.38429,320.639524 C1377.1981,320.453333 1376.89714,320.453333 1376.71095,320.639524 L1372.7619,324.588571 L1368.81286,320.639524 C1368.62667,320.453333 1368.32571,320.453333 1368.13952,320.639524 C1367.95333,320.825714 1367.95333,321.126667 1368.13952,321.312857 L1372.08857,325.261905 L1368.13952,329.210952 C1367.95333,329.397143 1367.95333,329.698095 1368.13952,329.884286 C1368.23238,329.977143 1368.35429,330.02381 1368.47619,330.02381 C1368.5981,330.02381 1368.72,329.977143 1368.81286,329.884286 L1372.7619,325.935238 L1376.71095,329.884286 C1376.80381,329.977143 1376.92571,330.02381 1377.04762,330.02381 C1377.16952,330.02381 1377.29143,329.977143 1377.38429,329.884286 C1377.57048,329.698095 1377.57048,329.397143 1377.38429,329.210952 L1373.43524,325.261905 L1377.38429,321.312857 C1377.57048,321.126667 1377.57048,320.825714 1377.38429,320.639524 Z" id="Cancel"></path>
        </g>
    </g>
</svg>