<?xml version="1.0" encoding="UTF-8"?>
<svg width="61px" height="51px" viewBox="0 0 61 51" version="1.1" xmlns="http://www.w3.org/2000/svg" xmlns:xlink="http://www.w3.org/1999/xlink">
    <!-- Generator: Sketch 43 (38999) - http://www.bohemiancoding.com/sketch -->
    <title>ChoosePillowIcon</title>
    <desc>Created with Sketch.</desc>
    <defs></defs>
    <g id="Page-1" stroke="none" stroke-width="1" fill="none" fill-rule="evenodd">
        <g id="1.-Home-Page" transform="translate(-248.000000, -903.000000)" stroke="#1C2333" fill-rule="nonzero" fill="#1C2333">
            <g id="ChoosePillow" transform="translate(226.000000, 904.000000)">
                <g id="ChoosePillowIcon" transform="translate(23.000000, 0.000000)">
                    <path d="M58.3797522,11.0493783 C58.7587724,10.5865876 59.0552298,10.0619585 59.2561174,9.4985087 C59.6403744,8.8105451 59.5208807,7.95105659 58.9635304,7.39400357 C58.4061802,6.83695054 57.5466281,6.71791527 56.8588696,7.10253913 C56.2956055,7.30308908 55.7711787,7.59934559 55.3086783,7.97826522 C49.3530133,7.1597646 43.3402438,6.83117153 37.3308522,6.9957913 C36.7985739,6.01609565 36.2540348,5.02867826 35.6707957,4.00981304 C35.8432342,3.43691062 35.9160308,2.83865498 35.886013,2.24111739 C35.9768871,1.45901379 35.5377117,0.711581095 34.8102667,0.410304123 C34.0828216,0.109027151 33.2437838,0.327078045 32.7550696,0.944413043 C32.3109803,1.34567667 31.9391478,1.82026974 31.6558043,2.34747391 C22.0104408,4.84561611 12.7607486,8.67715762 4.17417391,13.731313 C3.60191521,13.556944 3.00354818,13.4841054 2.40616957,13.5160957 C1.62404804,13.4243026 0.87606727,13.8629704 0.574384103,14.5903818 C0.272700935,15.3177932 0.490670932,16.1570749 1.10818696,16.6457609 C1.50928247,17.0902939 1.98416698,17.4621854 2.51188696,17.7450261 C5.00957316,27.3907512 8.84065029,36.6408874 13.8943565,45.228 C13.7225505,45.8007979 13.6497664,46.3987171 13.6791391,46.9960043 C13.6376028,47.7673004 14.0614735,48.4886304 14.755487,48.8277 C14.9377747,48.9023755 15.1329715,48.9404638 15.3299609,48.9397957 C15.8861404,48.9135284 16.4131167,48.6831489 16.8100957,48.2927217 C17.2539167,47.8917663 17.6253481,47.4173507 17.9080957,46.890287 C21.2089304,45.9926739 24.1957043,45.060287 27.0560478,44.0505652 C36.4402728,45.2391179 45.9406975,45.1775987 55.3087435,43.8676174 C55.7713863,44.2464868 56.2957658,44.5429327 56.8589348,44.7439826 C57.1534312,44.8473492 57.4627065,44.9024078 57.7747826,44.9070261 C58.2164607,44.9229907 58.6455823,44.7583324 58.963213,44.451013 C59.475029,43.872776 59.5904692,43.0441209 59.2561826,42.348013 C59.055452,41.7843155 58.7589879,41.2594683 58.3798304,40.7965565 C59.7631287,30.929073 59.7631023,20.9168545 58.3797522,11.0493783 Z M17.2940739,45.7056522 C17.1151817,45.7544173 16.9652612,45.8765722 16.8813652,46.0419261 C16.6566424,46.5186973 16.342733,46.9480448 15.9565826,47.3067913 C15.6266739,47.5908391 15.3681,47.6659957 15.2547261,47.6226913 C15.140087,47.5755652 15.0114391,47.3348217 14.980813,46.9030043 C14.9611673,46.3761556 15.0424487,45.85041 15.2202783,45.3540913 C15.2790615,45.1779419 15.2595944,44.9850517 15.1668,44.8242 C10.0547346,36.1811559 6.19293604,26.8574552 3.69652174,17.1310304 C3.64811343,16.9512544 3.52532124,16.8006621 3.35896957,16.7170565 C2.88239592,16.4920011 2.4531078,16.1781351 2.09410435,15.7922739 C1.81132174,15.4648826 1.73235652,15.2037913 1.77948261,15.0897913 C1.8266087,14.9764304 2.06735217,14.8477696 2.4978913,14.8165696 C2.56030435,14.8127478 2.62399565,14.8102043 2.68895217,14.8102043 C3.15212163,14.8205818 3.61077378,14.9037731 4.04808261,15.0567261 C4.22427519,15.115119 4.4170019,15.0956685 4.57797391,15.0032478 C13.220886,9.89088433 22.5446233,6.02902234 32.2711435,3.53282609 C32.4501629,3.48355083 32.6000462,3.3609621 32.6838522,3.19527391 C32.9081904,2.71827441 33.2221502,2.28885793 33.6086348,1.9304087 C33.9360261,1.64572174 34.2034826,1.56992609 34.3104913,1.61514783 C34.4251304,1.66227391 34.5537783,1.90301739 34.5844043,2.33419565 C34.6040567,2.86125779 34.5227763,3.38721818 34.3449391,3.88376087 C34.2861559,4.05991026 34.305623,4.25280046 34.3984174,4.41365217 C39.5108384,13.0560691 43.372662,22.3794044 45.8686957,32.1055565 C45.9167284,32.2848243 46.0390998,32.4350107 46.2049696,32.5182652 C46.681665,32.744308 47.1112693,33.0585339 47.4711,33.4443522 C47.7538826,33.7717435 47.8341261,34.0328348 47.7857217,34.1474739 C47.7385957,34.2608348 47.4978522,34.3894957 47.067313,34.4200826 C46.5398122,34.4439117 46.0128441,34.3625085 45.5171217,34.1806174 C45.3409156,34.1223474 45.1482403,34.1417928 44.9872304,34.2340957 C36.3441687,39.3464195 27.0204964,43.2086385 17.2940739,45.7056522 L17.2940739,45.7056522 Z M57.0499304,40.9098783 C57.0256294,41.0943668 57.0817635,41.2804038 57.2040522,41.4206609 C57.5583007,41.8113595 57.8345666,42.2661978 58.0179652,42.7606696 C58.1555348,43.1708217 58.1288348,43.4421391 58.0408957,43.5287609 C57.9555522,43.6179261 57.680413,43.6434 57.2715391,43.5058304 C56.7772698,43.3227964 56.3227803,43.0464814 55.9327957,42.6919174 C55.7924469,42.5697947 55.6064862,42.5136836 55.422013,42.5377957 C46.9388251,43.7427385 38.3403805,43.9090259 29.8169478,43.0329783 C35.1961799,40.9330807 40.4033505,38.4166295 45.3910435,35.5065391 C45.9638266,35.6784156 46.561758,35.7512012 47.1590478,35.7217565 C47.9416565,35.8130932 48.6897634,35.3737053 48.9911478,34.6457038 C49.2925321,33.9177023 49.0739125,33.0781006 48.4557522,32.5895348 C48.0545921,32.1462777 47.5802025,31.775299 47.0533174,31.492813 C44.9663845,23.4273777 41.933307,15.6369272 38.0172261,8.28363913 C43.8367613,8.16594336 49.6564944,8.50848866 55.4220391,9.30807391 C55.6063119,9.32982527 55.7913341,9.27399732 55.9328217,9.15395217 C56.3232902,8.79987254 56.7776366,8.52341875 57.2715652,8.33937391 C57.6804522,8.20241739 57.954313,8.22919565 58.0409217,8.31708261 C58.1288087,8.40433043 58.1555609,8.67564783 58.0179913,9.08581304 C57.8347759,9.58018601 57.5584854,10.0348521 57.2040783,10.4251957 C57.0818727,10.5654986 57.0257501,10.7514975 57.0499565,10.9359783 C58.4663917,20.8770867 58.466383,30.9687983 57.0499304,40.9099043 L57.0499304,40.9098783 Z" id="Shape"></path>
                </g>
            </g>
        </g>
    </g>
</svg>