<?xml version="1.0" encoding="UTF-8"?>
<svg width="143px" height="44px" viewBox="0 0 143 44" version="1.1" xmlns="http://www.w3.org/2000/svg" xmlns:xlink="http://www.w3.org/1999/xlink">
    <!-- Generator: Sketch 43 (38999) - http://www.bohemiancoding.com/sketch -->
    <title>Logo</title>
    <desc>Created with Sketch.</desc>
    <defs></defs>
    <g id="Page-1" stroke="none" stroke-width="1" fill="none" fill-rule="evenodd">
        <g id="1.-Home-Page" transform="translate(-44.000000, -15.000000)">
            <g id="Logo" transform="translate(45.000000, 14.000000)">
                <g id="noun_9580_cc" transform="translate(0.000000, 2.000000)" stroke="#1C2333" fill-rule="nonzero" fill="#1C2333">
                    <path d="M3.4227551,20.9184444 C3.40714286,20.751916 2.96540816,17.5190148 3.08984694,16.0666334 C3.2597449,14.1041268 2.91168367,8.48712782 2.76933673,7.64359427 C2.59668367,6.61877654 2.25137755,5.6101198 2.10903061,4.58424809 C2.01811224,3.92902524 1.63515306,3.38692933 1.33943878,2.80197166 C1.00423469,2.14007361 0.70622449,1.46482518 0.452295918,0.781847575 C0.298010204,0.366229002 0.604744898,0.124516764 1.31969388,0.151217535 C1.51714286,0.188106757 1.87668367,0.254507357 2.23622449,0.321961936 C2.88918367,0.443872032 7.48515306,1.3769937 8.89943878,1.48239147 C11.1104082,1.64681201 13.3112755,1.88957822 15.5185714,2.08526677 C17.2951531,2.24266078 19.0708163,2.45029441 20.8533673,2.50264197 C22.2704082,2.54444975 23.6970918,2.61260698 25.1311224,2.43659269 C26.5766327,2.25882177 28.0552041,2.23914752 29.52,2.15131604 C31.3365306,2.042405 36.687398,1.55827788 37.5529592,1.44796153 C39.049898,1.2564889 40.5495918,1.0857445 42.0483673,0.905162976 C42.3486735,0.868976405 42.6466837,0.80468376 42.9465306,0.798359894 C43.2927551,0.790982049 43.6651531,0.780090945 43.9819898,0.866517123 C44.4090306,0.983157331 44.5610204,1.24875973 44.4365816,1.61975991 C44.0219388,2.85888646 43.6366837,4.10433687 43.2408673,5.34697668 C43.2087245,5.44745589 42.2196429,11.7607828 42.1213776,13.2307305 C42.0368878,14.5049896 41.9817857,15.7810054 41.9652551,17.0570212 C41.957449,17.6086029 42.0056633,19.7956068 42.0483673,20.9184444" id="Shape"></path>
                </g>
                <path d="M41.9283593,22.9184444 C41.9439715,23.0849729 42.3857062,26.3178741 42.2612675,27.7702555 C42.0913695,29.7327621 42.4394307,35.3497611 42.5817777,36.1932946 C42.7544307,37.2181124 43.0997369,38.2267691 43.2420838,39.2526408 C43.3330022,39.9078637 43.7159613,40.4499596 44.0116756,41.0349172 C44.3468797,41.6968153 44.6448899,42.3720637 44.8988185,43.0550413 C45.0531042,43.4706599 44.7463695,43.7123721 44.0314205,43.6856714 C43.8339715,43.6487821 43.4744307,43.5823815 43.1148899,43.514927 C42.4619307,43.3930169 37.8659613,42.4598952 36.4516756,42.3544974 C34.2407062,42.1900769 32.0398389,41.9473107 29.832543,41.7516221 C28.0559613,41.5942281 26.2802981,41.3865945 24.4977471,41.3342469 C23.0807062,41.2924391 21.6540226,41.2242819 20.219992,41.4002962 C18.7744818,41.5780671 17.2959103,41.5977414 15.8311144,41.6855729 C14.0145838,41.7944839 8.66371644,42.278611 7.79815522,42.3889274 C6.30121644,42.5804 4.80152257,42.7511444 3.30274706,42.9317259 C3.00244093,42.9679125 2.70443073,43.0322051 2.40458379,43.038529 C2.0583593,43.0459068 1.68596134,43.0567979 1.36912461,42.9703718 C0.942083792,42.8537316 0.790093996,42.5881292 0.914532771,42.217129 C1.32917563,40.9780024 1.71443073,39.732552 2.11024706,38.4899122 C2.14238991,38.389433 3.13147155,32.0761061 3.22973685,30.6061584 C3.31422665,29.3318993 3.36932869,28.0558835 3.3858593,26.7798677 C3.39366542,26.228286 3.34545114,24.0412821 3.30274706,22.9184444" id="Path" stroke="#1C2333"></path>
                <polyline id="Rectangle-10" stroke="#FFFFFF" stroke-dasharray="6" points="8.26530612 22.7692308 8.26530612 8.92307692 8.26530612 8.92307692 38.5714286 8.92307692 38.5714286 22.7692308"></polyline>
                <polyline id="Rectangle-10" stroke="#1C2333" stroke-dasharray="6" transform="translate(23.418367, 30.153846) scale(1, -1) translate(-23.418367, -30.153846) " points="8.26530612 37.0769231 8.26530612 23.2307692 8.26530612 23.2307692 38.5714286 23.2307692 38.5714286 37.0769231"></polyline>
                <text id="Flip-Stitch-Pillow" font-family=".SFNSDisplay-Light, .SF NS Display" font-size="20" font-weight="300" fill="#20212F">
                    <tspan x="61" y="19">Flip Stitch</tspan>
                    <tspan x="61" y="42">Pillow</tspan>
                </text>
            </g>
        </g>
    </g>
</svg>