<?xml version="1.0" encoding="UTF-8"?>
<svg width="16px" height="16px" viewBox="0 0 16 16" version="1.1" xmlns="http://www.w3.org/2000/svg" xmlns:xlink="http://www.w3.org/1999/xlink">
    <!-- Generator: Sketch 43 (38999) - http://www.bohemiancoding.com/sketch -->
    <title>Search_1_</title>
    <desc>Created with Sketch.</desc>
    <defs></defs>
    <g id="Page-1" stroke="none" stroke-width="1" fill="none" fill-rule="evenodd">
        <g id="1.-Home-Page" transform="translate(-1324.000000, -29.000000)" fill="#1C2333">
            <g id="Right_Navigation" transform="translate(981.000000, 27.000000)">
                <path d="M359,17.2458667 L354.266133,12.5450667 C355.2208,11.4272 355.8,9.97973333 355.8,8.39893333 C355.8,4.8704 352.9296,2 349.4,2 C345.8704,2 343,4.8704 343,8.39893333 C343,11.9285333 345.8704,14.8 349.4,14.8 C350.9648,14.8 352.3984,14.2336 353.510933,13.2981333 L358.245867,18 L359,17.2458667 Z M349.4,13.7333333 C346.453867,13.7333333 344.066667,11.3429333 344.066667,8.39893333 C344.066667,5.45386667 346.453867,3.06666667 349.4,3.06666667 C352.345067,3.06666667 354.733333,5.45386667 354.733333,8.39893333 C354.733333,11.3429333 352.345067,13.7333333 349.4,13.7333333 Z" id="Search_1_"></path>
            </g>
        </g>
    </g>
</svg>