<?xml version="1.0" encoding="UTF-8"?>
<svg width="21px" height="19px" viewBox="0 0 21 19" version="1.1" xmlns="http://www.w3.org/2000/svg" xmlns:xlink="http://www.w3.org/1999/xlink">
    <!-- Generator: Sketch 43 (38999) - http://www.bohemiancoding.com/sketch -->
    <title>Shape</title>
    <desc>Created with Sketch.</desc>
    <defs></defs>
    <g id="Page-1" stroke="none" stroke-width="1" fill="none" fill-rule="evenodd">
        <g id="3.-Product-Details-Page" transform="translate(-1369.000000, -27.000000)" fill-rule="nonzero" fill="#1C2333">
            <g id="Right_Navigation" transform="translate(45.000000, 14.000000)">
                <path d="M1324.46961,13.0000154 C1324.21024,13.0000154 1324,13.2126802 1324,13.4750159 C1324,13.7373516 1324.21024,13.9500164 1324.46961,13.9500164 L1326.9057,13.9500164 L1329.37847,25.7804963 C1329.35325,26.0511279 1329.6017,26.3136844 1329.8701,26.3000282 L1341.61031,26.3000282 C1341.8584,26.3035907 1342.08661,26.0760179 1342.08661,25.8250276 C1342.08661,25.5740611 1341.8584,25.3464883 1341.61031,25.3500271 L1330.25166,25.3500271 L1329.85543,23.4500249 L1342.54952,23.4500249 C1342.75979,23.4476499 1342.95846,23.2864585 1343.00446,23.0789307 L1344.64809,15.9539274 C1344.70916,15.678256 1344.47245,15.3770392 1344.19315,15.3750204 L1328.16777,15.3750204 L1327.74954,13.3711095 C1327.703,13.161164 1327.49997,12.9981795 1327.28726,13.0000154 L1324.46961,13.0000154 Z M1328.3659,16.3250215 L1343.60614,16.3250215 L1342.17529,22.5000238 L1329.65732,22.5000238 L1328.3659,16.3250215 Z M1332.21814,27.7250298 C1331.05661,27.7250298 1330.10491,28.6876421 1330.10491,29.8625322 C1330.10491,31.0374223 1331.05661,32.0000347 1332.21814,32.0000347 C1333.3797,32.0000347 1334.33138,31.0374223 1334.33138,29.8625322 C1334.33138,28.6876659 1333.3797,27.7250298 1332.21814,27.7250298 Z M1339.26227,27.7250298 C1338.10074,27.7250298 1337.14903,28.6876421 1337.14903,29.8625322 C1337.14903,31.0374223 1338.10074,32.0000347 1339.26227,32.0000347 C1340.42382,32.0000347 1341.3755,31.0374223 1341.3755,29.8625322 C1341.3755,28.6876659 1340.42382,27.7250298 1339.26227,27.7250298 Z M1332.21814,28.6750309 C1332.8721,28.6750309 1333.39216,29.2010702 1333.39216,29.8625322 C1333.39216,30.524018 1332.8721,31.0500336 1332.21814,31.0500336 C1331.56421,31.0500336 1331.04412,30.5239942 1331.04412,29.8625322 C1331.04412,29.201094 1331.56421,28.6750309 1332.21814,28.6750309 Z M1339.26227,28.6750309 C1339.91622,28.6750309 1340.43629,29.2010702 1340.43629,29.8625322 C1340.43629,30.524018 1339.91622,31.0500336 1339.26227,31.0500336 C1338.60834,31.0500336 1338.08825,30.5239942 1338.08825,29.8625322 C1338.08825,29.201094 1338.60834,28.6750309 1339.26227,28.6750309 Z" id="Shape"></path>
            </g>
        </g>
    </g>
</svg>